<?xml version="1.0" encoding="UTF-8" standalone="no"?>
<!-- Created with Inkscape (http://www.inkscape.org/) -->

<svg
   width="512"
   height="512"
   viewBox="0 0 512 512"
   version="1.1"
   id="svg1"
   xml:space="preserve"
   inkscape:version="1.3.1 (9b9bdc1480, 2023-11-25, custom)"
   sodipodi:docname="favicon.svg"
   xmlns:inkscape="http://www.inkscape.org/namespaces/inkscape"
   xmlns:sodipodi="http://sodipodi.sourceforge.net/DTD/sodipodi-0.dtd"
   xmlns="http://www.w3.org/2000/svg"
   xmlns:svg="http://www.w3.org/2000/svg"><sodipodi:namedview
     id="namedview1"
     pagecolor="#ffffff"
     bordercolor="#000000"
     borderopacity="0.25"
     inkscape:showpageshadow="2"
     inkscape:pageopacity="0.0"
     inkscape:pagecheckerboard="0"
     inkscape:deskcolor="#d1d1d1"
     inkscape:document-units="px"
     inkscape:zoom="0.73686075"
     inkscape:cx="50.213015"
     inkscape:cy="341.99135"
     inkscape:window-width="1850"
     inkscape:window-height="1016"
     inkscape:window-x="70"
     inkscape:window-y="27"
     inkscape:window-maximized="1"
     inkscape:current-layer="layer1" /><defs
     id="defs1" /><g
     inkscape:label="Layer 1"
     inkscape:groupmode="layer"
     id="layer1"><text
       xml:space="preserve"
       style="font-size:74.6667px;font-family:FreeSans;-inkscape-font-specification:FreeSans;text-align:center;text-anchor:middle;fill:#ffffff;fill-opacity:0.64216;stroke:#000000;stroke-linecap:round"
       x="43.80423"
       y="154.74081"
       id="text1"><tspan
         sodipodi:role="line"
         id="tspan1"></tspan></text><path
       id="path1"
       style="fill:#f472b6;stroke-width:1;fill-opacity:1"
       d="m 217.45048,108.48029 c -4.18694,0.0574 -8.55464,0.46342 -12.13541,2.02897 -3.33002,1.41786 -5.41975,3.82365 -6.58331,6.30155 -1.77787,3.54157 -2.43044,7.27513 -3.08372,10.96947 -0.61008,4.45427 -0.45118,8.93389 -0.51939,13.40152 -0.0267,12.18874 0.28402,24.37627 0.57434,36.56303 0.58998,23.42128 1.66953,46.83523 2.43497,70.25391 0.60925,19.72862 0.83262,39.46404 0.43126,59.19569 -0.43752,26.36633 -1.54445,52.72615 -1.80962,79.09394 0.0199,2.14142 -0.003,4.28831 0.24191,6.42378 0.31697,1.08023 1.58726,1.88514 2.82161,2.53822 2.69979,1.35067 6.0074,1.97025 9.22536,2.51005 3.52614,0.55746 7.14923,0.79282 10.76814,0.78901 7.44553,0.0645 14.89259,-0.14925 22.31584,-0.52435 4.60629,-0.25454 9.18285,-0.75763 13.65229,-1.55189 14.73747,-2.51952 28.55813,-7.36349 40.15834,-13.96775 13.23211,-7.4903 23.62464,-17.06724 31.30941,-27.44621 3.52011,-4.75873 6.52101,-9.69263 8.97496,-14.74467 1.94007,-4.0329 3.18864,-8.23024 3.39493,-12.47306 0.30306,-4.87994 -0.36124,-9.7551 -1.09611,-14.605 -1.49951,-9.46968 -4.72878,-18.83995 -10.04561,-27.67722 -6.43084,-10.86232 -15.50913,-21.08123 -27.37606,-29.65808 -5.17524,-3.75237 -11.04341,-7.03499 -17.03696,-10.17481 -5.63039,-2.90527 -11.42293,-5.67758 -17.51478,-8.13109 -2.10483,-0.85988 -4.22667,-1.69877 -6.34658,-2.54075 5.59304,-2.51157 11.24937,-5.00787 16.18449,-8.10141 10.08283,-6.14145 18.45375,-13.47574 25.36613,-21.33497 6.09791,-7.00692 11.0398,-14.52217 13.88839,-22.42878 1.25506,-3.53347 1.90891,-7.15942 1.97528,-10.79156 0.1113,-3.55748 -0.0221,-7.12122 -0.46925,-10.66706 -1.5078,-10.6433 -7.29252,-21.06723 -17.03969,-29.54565 -7.95979,-6.90668 -18.43743,-12.42565 -30.07441,-16.27399 -7.21799,-2.39504 -14.84476,-4.28118 -22.75662,-5.32034 -8.11485,-1.09671 -16.35362,-1.78609 -24.62067,-2.05756 -1.73561,-0.0416 -3.47267,-0.0626 -5.20946,-0.0529 z m 22.31354,17.74892 c 5.93768,0.15653 11.82439,1.09304 17.26281,2.69754 6.86478,2.15208 12.81917,5.5055 18.074,9.17988 6.10756,4.37474 11.0174,9.58888 13.61558,15.355 0.1384,0.32197 0.34136,0.77606 0.46873,1.15586 0.28983,0.81525 0.50875,1.72756 0.63531,2.50628 0.0625,0.39339 0.10566,0.68268 0.15238,1.07689 0.0172,0.20856 0.0557,0.51459 0.0724,0.75204 0.22164,3.36772 0.20693,6.74026 0.26481,10.11054 0.009,2.27838 0.0571,4.5585 0.0402,6.83581 -0.13761,0.66075 -0.71955,1.22823 -1.04028,1.85177 -4.04354,6.42417 -7.98127,12.92268 -12.28235,19.24578 -2.21143,3.2142 -4.44667,6.42596 -7.04898,9.5076 -1.53337,1.84729 -3.17613,3.73966 -4.82425,5.54795 -2.27082,2.48523 -4.62984,4.96643 -7.12066,7.37461 -2.21094,2.07306 -4.83972,3.94414 -7.8258,5.51936 -4.35371,2.40969 -9.30247,4.4028 -14.75024,5.45263 -2.28077,0.4819 -4.6069,0.86165 -6.91731,1.26783 -0.47789,-17.06618 -0.99039,-34.13242 -1.79776,-51.19322 -0.52448,-13.67095 -0.74218,-27.34896 -0.45429,-41.02359 0.0272,-0.69132 0.05,-1.39304 0.0934,-2.02915 0.0426,-0.5823 0.084,-1.05395 0.15238,-1.63512 0.2099,-1.80565 0.67757,-3.63349 1.93701,-5.25441 1.23618,-1.66082 3.2897,-3.10461 5.93722,-3.72633 1.70675,-0.42701 3.54103,-0.58776 5.35563,-0.57555 z m 8.3619,123.71845 c 4.6158,0.0382 9.40581,0.0826 13.70262,1.36023 4.1984,1.25233 7.58351,3.39809 11.05524,5.36417 13.1383,7.73982 23.10921,17.8762 28.58973,29.02823 0.8274,1.66585 1.57824,3.41155 2.22508,5.07395 1.08627,2.82518 2.03788,5.673 2.89212,8.51478 0.91274,3.09138 1.60975,6.26909 2.10684,9.36629 0.29795,1.88109 0.52708,3.76686 0.69904,5.65503 0.0951,1.10321 0.18478,2.29121 0.23654,3.42864 0.19874,4.7152 0.24133,9.51353 0.0831,14.26199 -0.0686,1.82583 -0.0978,3.68494 -0.48669,5.52007 -0.56241,2.96594 -1.87742,5.83654 -3.34216,8.64983 -1.78554,3.35796 -4.1366,6.6564 -6.83755,9.66989 -0.79545,0.88131 -1.64819,1.77794 -2.48312,2.59137 -0.41979,0.41756 -0.84383,0.81986 -1.31214,1.25271 -0.68189,0.63368 -1.46644,1.31822 -2.142,1.89006 -4.75629,3.99147 -10.36784,7.5144 -16.52964,10.50811 -2.24485,1.08837 -4.61742,2.11182 -6.96814,3.02313 -2.20086,0.84739 -4.45978,1.62653 -6.77133,2.32817 -0.87813,0.26672 -1.91108,0.56301 -2.86301,0.81898 -1.49776,0.4088 -3.16444,0.80892 -4.75387,1.16652 -3.94932,0.88511 -8.02208,1.58433 -12.06111,2.13188 -3.03236,0.42231 -6.0607,0.7267 -9.09815,1.0473 -0.96058,0.10381 -1.92114,0.20765 -2.88173,0.31148 0.003,-21.75053 0.0197,-43.50266 -0.56756,-65.2504 -0.42331,-18.06774 -1.03393,-36.13444 -1.98844,-54.19293 -0.23828,-4.45222 -0.51263,-8.90351 -0.81094,-13.35408 6.76896,-0.0633 13.53784,-0.13036 20.30728,-0.1654 z" /><path
       style="fill:#f472b6;stroke-width:0.999999;fill-opacity:1"
       d="m 103.03251,493.89461 c -6.981719,-2.68578 -12.064489,-7.15863 -15.468134,-13.61201 -2.820257,-5.34725 -2.805436,-12.52752 0.04816,-23.31811 1.948985,-7.36996 2.147975,-9.61151 2.489285,-28.0407 0.63047,-34.0429 -0.15969,-49.77196 -5.60572,-176.64336 -3.888151,-90.57873 -3.94159,-136.8217 -4.321815,-189.586251 -0.243922,-33.84966 -0.304014,-33.415104 5.187971,-37.516595 3.946804,-2.94752 8.149944,-3.994567 14.275834,-3.556255 8.630219,0.617483 14.882869,5.116457 18.666189,13.430888 1.52252,3.34597 1.68208,5.780005 2.21679,33.817579 0.57267,30.027168 1.27021,49.710404 3.50075,98.783734 3.46612,76.25693 2.06384,93.29379 2.84413,200.97872 l 0.55008,75.91526 h 29.0851 l 82.04517,-1.23294 c 0,0 90.70369,-1.62959 114.16881,2.53911 3.46667,0.61587 9.98306,3.45141 9.98306,3.45141 6.05353,2.09286 9.92453,10.80897 11.08514,15.11912 1.93679,7.1927 -2.04707,17.1814 -8.71847,21.85969 -3.15393,2.21169 -3.99843,2.42211 -9.21398,2.2952 -1.58548,-0.0385 -79.86608,-3.79907 -117.79386,-3.9091 -37.61787,-0.10913 -77.54943,2.23585 -83.85789,2.15006 -22.93543,-0.31188 -23.04154,-0.30561 -24.70115,1.46095 -0.91673,0.97582 -3.89151,2.77488 -6.61063,3.99793 -5.91085,2.65868 -15.18225,3.41313 -19.85479,1.61567 z"
       id="path2"
       sodipodi:nodetypes="sssssssssssscccsssssssssss" /><path
       style="fill:#f59e0b;stroke-width:0.999999;fill-opacity:1"
       d="m 421.08105,17.23927 c 6.98172,2.68578 12.06449,7.15863 15.46814,13.61201 2.82025,5.34725 2.80543,12.52752 -0.0482,23.31811 -1.94899,7.36996 -2.14798,9.61151 -2.48929,28.0407 -0.63047,34.0429 0.15969,49.77196 5.60572,176.64335 3.88815,90.57873 3.94159,136.8217 4.32182,189.58625 0.24392,33.84966 0.30401,33.4151 -5.18797,37.51659 -3.94681,2.94752 -8.14995,3.99457 -14.27584,3.55626 -8.63022,-0.61749 -14.88287,-5.11646 -18.66619,-13.43089 -1.52251,-3.34597 -1.68208,-5.78001 -2.21679,-33.81758 -0.57267,-30.02717 -1.27021,-49.7104 -3.50075,-98.78373 -3.46612,-76.25693 -2.06384,-93.29379 -2.84413,-200.97871 l -0.55008,-75.91526 h -29.0851 l -82.04517,1.23294 c 0,0 -90.70369,1.62959 -114.16881,-2.53911 -3.46667,-0.61587 -9.98306,-3.45141 -9.98306,-3.45141 -6.05353,-2.09286 -9.92453,-10.80897 -11.08514,-15.11912 -1.93679,-7.1927 2.04707,-17.1814 8.71847,-21.85969 3.15393,-2.21169 3.99843,-2.42211 9.21398,-2.2952 1.58548,0.0385 79.86608,3.79907 117.79386,3.9091 37.61787,0.10913 77.54943,-2.23585 83.85789,-2.15006 22.93543,0.31188 23.04154,0.30561 24.70115,-1.46095 0.91673,-0.97582 3.89151,-2.77488 6.61063,-3.99793 5.91085,-2.65868 15.18225,-3.413131 19.85479,-1.61567 z"
       id="path3"
       sodipodi:nodetypes="sssssssssssscccsssssssssss" /></g></svg>
