<?xml version="1.0" encoding="UTF-8" standalone="no"?>
<!-- Created with Inkscape (http://www.inkscape.org/) -->

<svg
   width="512"
   height="512"
   viewBox="0 0 512 512"
   version="1.1"
   id="svg1"
   xml:space="preserve"
   inkscape:version="1.3.1 (9b9bdc1480, 2023-11-25, custom)"
   sodipodi:docname="favicon3.svg"
   xmlns:inkscape="http://www.inkscape.org/namespaces/inkscape"
   xmlns:sodipodi="http://sodipodi.sourceforge.net/DTD/sodipodi-0.dtd"
   xmlns="http://www.w3.org/2000/svg"
   xmlns:svg="http://www.w3.org/2000/svg"><sodipodi:namedview
     id="namedview1"
     pagecolor="#ffffff"
     bordercolor="#000000"
     borderopacity="0.25"
     inkscape:showpageshadow="2"
     inkscape:pageopacity="0.0"
     inkscape:pagecheckerboard="0"
     inkscape:deskcolor="#d1d1d1"
     inkscape:document-units="px"
     inkscape:zoom="0.86750989"
     inkscape:cx="394.23182"
     inkscape:cy="341.20648"
     inkscape:window-width="1850"
     inkscape:window-height="1016"
     inkscape:window-x="70"
     inkscape:window-y="27"
     inkscape:window-maximized="1"
     inkscape:current-layer="layer1" /><defs
     id="defs1" /><g
     inkscape:label="Layer 1"
     inkscape:groupmode="layer"
     id="layer1"><text
       xml:space="preserve"
       style="font-size:74.6667px;font-family:FreeSans;-inkscape-font-specification:FreeSans;text-align:center;text-anchor:middle;fill:#ffffff;fill-opacity:0.64216;stroke:#000000;stroke-linecap:round"
       x="43.80423"
       y="154.74081"
       id="text1"><tspan
         sodipodi:role="line"
         id="tspan1" /></text><path
       id="path1"
       style="fill:#f472b6;fill-opacity:1;stroke-width:0.999998"
       d="m 310.27549,135.5493 c -14.13966,-1.17654 -28.81742,7.53627 -30.59951,22.39619 -3.93555,22.18998 -1.12662,44.94831 -1.28421,67.3687 1.97594,64.91106 5.5976,129.84599 2.74565,194.79671 -0.16061,24.27271 -2.42647,48.69912 -0.68376,72.89241 9.83969,13.38928 29.64603,10.23575 44.35313,10.85036 46.62336,1.00214 95.93337,-16.04439 124.81632,-54.13009 11.83452,-14.99352 21.22904,-33.87177 16.80907,-53.46034 -4.74353,-42.14733 -36.93389,-76.18058 -74.32304,-93.27783 -5.81991,-3.50217 -19.46373,-6.07435 -6.5859,-10.06792 24.19588,-15.06851 47.06778,-36.86172 53.98467,-65.40571 4.95553,-26.63505 -8.9302,-53.99623 -31.61563,-68.04684 -28.66384,-19.07102 -63.93427,-23.7491 -97.61679,-23.91564 z m 28.10547,33.79297 c 21.51794,0.4923 44.5239,10.94536 55.05975,30.38883 5.44271,16.90285 -2.2795,31.81469 -12.51985,44.8941 -12.37736,17.86901 -27.23058,37.87119 -50.3524,41.13699 -0.60301,-37.0581 -4.0379,-74.14445 -2.10639,-111.18774 0.80053,-4.54459 6.158,-5.27343 9.91889,-5.23218 z m 10.42383,152.00781 c 19.74241,-1.50667 36.51239,12.0634 49.63481,25.25185 18.55048,20.69484 22.75493,50.77986 18.99771,77.425 -11.04608,28.53729 -42.62067,41.92646 -70.9164,46.39424 -20.84876,8.66247 -9.78463,-19.31074 -12.58726,-31.36167 -0.30056,-39.20684 -1.36172,-78.41824 -3.66792,-117.56099 6.17969,-0.0494 12.35937,-0.0992 18.53906,-0.14843 z" /><path
       id="path2"
       style="fill:#f472b6;fill-opacity:1;stroke-width:1"
       d="M 26.214938,4.2296629 C 20.443387,4.4800319 14.767199,6.5957188 10.284719,10.24895 7.1436203,12.549106 4.6315101,15.877372 3.8688602,19.748192 2.648148,24.799834 2.8498185,30.038164 2.7348964,35.195016 2.6470112,48.220377 2.8705555,61.245195 2.919783,74.270334 3.1810444,114.53208 3.7603447,154.79598 5.1374424,195.03581 c 1.4520624,43.97537 3.5390111,87.92624 5.3571556,131.88726 0.82325,19.31309 1.588661,38.62881 2.225207,57.94902 0.471668,16.07205 0.70948,32.27134 0.347099,48.39281 -0.128629,5.40792 -0.169405,10.81985 -0.453316,16.2226 -0.08884,1.35867 -0.214547,2.94249 -0.396336,4.38089 -0.563935,4.83398 -2.2909861,9.39314 -3.0533866,14.18919 -1.1113207,6.19515 -1.458817,12.7447 0.548938,18.79838 2.1506956,6.28214 6.3656966,11.7496 11.5307346,15.86615 3.877512,3.03756 8.339901,5.42256 13.142452,6.58782 5.431249,1.17123 11.083943,0.71165 16.485648,-0.38974 5.579816,-1.26106 10.937287,-3.69132 15.409527,-7.27679 5.512237,-0.31107 11.034581,-0.0572 16.550789,-0.0313 6.34462,0.12109 12.6846,-0.16309 19.021326,-0.43603 30.56829,-1.20872 61.15012,-2.25874 91.75635,-1.46002 32.65737,0.72648 65.29508,2.14375 97.94115,3.55925 4.32396,0.0942 8.78143,0.73845 12.98614,-0.61469 2.78682,-0.87172 5.20407,-2.61455 7.43591,-4.45079 6.51588,-5.59145 10.53467,-13.96623 10.94077,-22.53116 0.1634,-4.22031 -0.89559,-8.41334 -2.62199,-12.22967 -2.27672,-5.32078 -5.63368,-10.38739 -10.46833,-13.69774 -3.04881,-1.95164 -6.54025,-3.025 -9.88758,-4.3359 -3.65165,-1.29773 -7.47462,-2.06212 -11.33427,-2.36977 -12.04728,-1.32467 -24.17798,-1.57458 -36.2832,-1.92827 -30.25705,-0.67052 -60.52438,-0.331 -90.78182,0.1298 -24.61429,0.36142 -49.22781,0.78988 -73.843177,1.06849 -6.831916,0.0389 -13.663972,0.0116 -20.495954,0.0195 C 66.814159,389.51416 66.378323,336.69309 66.35105,283.8705 66.30231,254.19002 66.129695,224.50235 65.016055,194.84017 63.835086,162.02886 62.052025,129.2005 61.000708,96.410055 60.371787,77.303729 60.125013,58.187196 59.592293,39.078669 59.430105,35.368686 59.339101,31.635154 58.72177,27.966859 57.85062,23.210919 55.4109,18.891735 52.456453,15.123909 48.166969,9.6756031 41.804549,5.9749222 34.987011,4.781632 32.097401,4.2520488 29.146092,4.1447246 26.214938,4.2296629 Z" /></g></svg>
