<?xml version="1.0" encoding="UTF-8" standalone="no"?>
<!-- Created with Inkscape (http://www.inkscape.org/) -->

<svg
   width="512"
   height="512"
   viewBox="0 0 512 512"
   version="1.1"
   id="svg1"
   xml:space="preserve"
   inkscape:version="1.3.1 (9b9bdc1480, 2023-11-25, custom)"
   sodipodi:docname="favicon2.svg"
   xmlns:inkscape="http://www.inkscape.org/namespaces/inkscape"
   xmlns:sodipodi="http://sodipodi.sourceforge.net/DTD/sodipodi-0.dtd"
   xmlns="http://www.w3.org/2000/svg"
   xmlns:svg="http://www.w3.org/2000/svg"><sodipodi:namedview
     id="namedview1"
     pagecolor="#ffffff"
     bordercolor="#000000"
     borderopacity="0.25"
     inkscape:showpageshadow="2"
     inkscape:pageopacity="0.0"
     inkscape:pagecheckerboard="0"
     inkscape:deskcolor="#d1d1d1"
     inkscape:document-units="px"
     inkscape:zoom="0.82449301"
     inkscape:cx="94.603592"
     inkscape:cy="232.87038"
     inkscape:window-width="1850"
     inkscape:window-height="1016"
     inkscape:window-x="70"
     inkscape:window-y="27"
     inkscape:window-maximized="1"
     inkscape:current-layer="layer1" /><defs
     id="defs1" /><g
     inkscape:label="Layer 1"
     inkscape:groupmode="layer"
     id="layer1"><text
       xml:space="preserve"
       style="font-size:74.6667px;font-family:FreeSans;-inkscape-font-specification:FreeSans;text-align:center;text-anchor:middle;fill:#ffffff;fill-opacity:0.64216;stroke:#000000;stroke-linecap:round"
       x="43.80423"
       y="154.74081"
       id="text1"><tspan
         sodipodi:role="line"
         id="tspan1" /></text><path
       id="path1"
       style="fill:#f472b6;fill-opacity:1;stroke-width:0.999998"
       d="m 161.58667,9.6658316 c -6.58988,0.158808 -13.43411,0.9901654 -19.20964,4.4035694 -4.77148,2.772544 -8.0639,7.567129 -9.82388,12.719941 -1.65801,4.606588 -2.55389,9.457525 -3.10968,14.309795 -0.58077,6.801686 -0.34908,13.636496 -0.39412,20.454546 0.12346,21.26795 0.73994,42.529787 1.43026,63.785337 0.71195,20.63372 1.56295,41.33583 2.24964,61.92446 0.77632,25.90056 1.03839,51.82134 0.42644,77.72842 -0.59877,31.18767 -1.8738,62.36189 -2.10859,93.55631 0.0715,2.85966 -0.0706,5.79642 0.71774,8.57163 1.27149,3.40336 4.51775,5.50698 7.72222,6.8702 5.34516,2.21097 11.13229,3.01289 16.84101,3.6517 7.5201,0.66115 15.08015,0.40096 22.61728,0.27798 10.31413,-0.24493 20.66797,-0.61302 30.85407,-2.379 14.04981,-2.35093 27.85184,-6.37506 40.83113,-12.26846 16.80024,-7.63823 32.18221,-18.55909 44.45951,-32.37909 8.12011,-9.11764 14.98126,-19.40582 19.95652,-30.56748 2.71268,-6.38403 3.9265,-13.3824 3.55897,-20.30765 -0.23523,-6.45282 -1.23468,-12.85542 -2.48782,-19.1814 -2.74246,-13.03484 -8.23949,-25.42898 -15.72422,-36.42761 -11.1809,-16.64685 -26.44505,-30.44178 -43.88617,-40.29136 -8.58154,-4.93886 -17.47253,-9.33072 -26.53395,-13.31708 9.31763,-4.71428 17.95541,-10.70528 25.93131,-17.42725 8.96084,-7.64645 17.05052,-16.37079 23.66635,-26.13134 4.73988,-7.09674 8.71256,-14.83028 10.75867,-23.15345 1.49482,-6.532847 1.42117,-13.302977 0.97455,-19.952007 -0.49448,-6.38105 -1.97932,-12.68943 -4.53011,-18.56539 C 281.55327,53.299173 272.42851,42.945115 261.61581,35.2607 248.87452,26.10502 234.10402,20.173812 219.02688,16.110151 c -9.41123,-2.52681 -19.06879,-4.022228 -28.76126,-4.940598 -9.5262,-0.978019 -19.0992,-1.5812684 -28.67895,-1.5037214 z M 189.69214,43.4588 c 6.50653,0.199553 13.01592,1.116196 19.2649,2.962699 8.49942,2.611246 16.37903,7.027874 23.39472,12.453104 5.1128,4.03457 9.74274,8.9572 12.40013,14.97303 1.22982,3.2853 0.99532,6.80497 1.12974,10.23123 0.0707,4.31899 0.1351,8.63838 0.13083,12.95806 -6.70151,10.546027 -13.00827,21.266097 -20.5153,31.258047 -4.40497,5.75045 -9.24311,11.16462 -14.32534,16.32334 -2.28258,2.29511 -4.54621,4.6488 -7.28488,6.41137 -3.82405,2.5738 -8.00554,4.59601 -12.30114,6.24988 -3.15282,1.14497 -6.41385,1.9695 -9.70616,2.59916 -0.55094,-19.7507 -1.2619,-39.49772 -2.12423,-59.23808 -0.55084,-16.089827 -0.80125,-32.276087 -0.37337,-48.408817 0.16206,-2.285483 0.19327,-4.959824 2.06367,-6.590781 2.24074,-1.94872 5.41637,-2.131935 8.24643,-2.182242 z m 10.42383,152.00781 c 6.06461,0.0978 12.38263,-0.0204 18.04709,2.47581 3.87863,1.64525 7.48505,3.85502 11.09354,6.01247 9.27572,5.69933 17.77634,12.80959 24.41992,21.47461 0.23713,0.31435 0.69766,0.91478 0.9333,1.25113 3.93176,5.34499 6.96065,11.32004 9.12977,17.58414 2.64356,7.18914 4.65241,14.79412 5.46992,22.45947 0.79073,7.36546 0.7877,14.79064 0.63987,22.18848 -0.0979,3.09894 -0.0792,6.26146 -1.10089,9.23074 -1.3537,4.18522 -3.53275,8.06216 -5.97822,11.7001 -6.58827,9.54183 -16.04692,16.72569 -26.16444,22.18958 -10.54823,5.69149 -22.20476,9.51675 -34.04397,11.67927 -3.15255,0.59814 -6.31481,1.09664 -9.43604,1.51798 -2.5851,0.34861 -5.24649,0.65785 -7.795,0.93348 0.0217,-29.32184 -0.14656,-58.64825 -1.0786,-87.95731 -0.59709,-20.87443 -1.39409,-41.74674 -2.67531,-62.59152 6.17969,-0.0494 12.35937,-0.0992 18.53906,-0.14843 z" /><path
       id="path2"
       style="fill:#f472b6;fill-opacity:1;stroke-width:1"
       d="M 26.214938,4.2296629 C 20.443387,4.4800319 14.767199,6.5957188 10.284719,10.24895 7.1436203,12.549106 4.6315101,15.877372 3.8688602,19.748192 2.648148,24.799834 2.8498185,30.038164 2.7348964,35.195016 2.6470112,48.220377 2.8705555,61.245195 2.919783,74.270334 3.1810444,114.53208 3.7603447,154.79598 5.1374424,195.03581 c 1.4520624,43.97537 3.5390111,87.92624 5.3571556,131.88726 0.82325,19.31309 1.588661,38.62881 2.225207,57.94902 0.471668,16.07205 0.70948,32.27134 0.347099,48.39281 -0.128629,5.40792 -0.169405,10.81985 -0.453316,16.2226 -0.08884,1.35867 -0.214547,2.94249 -0.396336,4.38089 -0.563935,4.83398 -2.2909861,9.39314 -3.0533866,14.18919 -1.1113207,6.19515 -1.458817,12.7447 0.548938,18.79838 2.1506956,6.28214 6.3656966,11.7496 11.5307346,15.86615 3.877512,3.03756 8.339901,5.42256 13.142452,6.58782 5.431249,1.17123 11.083943,0.71165 16.485648,-0.38974 5.579816,-1.26106 10.937287,-3.69132 15.409527,-7.27679 5.512237,-0.31107 11.034581,-0.0572 16.550789,-0.0313 6.34462,0.12109 12.6846,-0.16309 19.021326,-0.43603 30.56829,-1.20872 61.15012,-2.25874 91.75635,-1.46002 32.65737,0.72648 65.29508,2.14375 97.94115,3.55925 4.32396,0.0942 8.78143,0.73845 12.98614,-0.61469 2.78682,-0.87172 5.20407,-2.61455 7.43591,-4.45079 6.51588,-5.59145 10.53467,-13.96623 10.94077,-22.53116 0.1634,-4.22031 -0.89559,-8.41334 -2.62199,-12.22967 -2.27672,-5.32078 -5.63368,-10.38739 -10.46833,-13.69774 -3.04881,-1.95164 -6.54025,-3.025 -9.88758,-4.3359 -3.65165,-1.29773 -7.47462,-2.06212 -11.33427,-2.36977 -12.04728,-1.32467 -24.17798,-1.57458 -36.2832,-1.92827 -30.25705,-0.67052 -60.52438,-0.331 -90.78182,0.1298 -24.61429,0.36142 -49.22781,0.78988 -73.843177,1.06849 -6.831916,0.0389 -13.663972,0.0116 -20.495954,0.0195 C 66.814159,389.51416 66.378323,336.69309 66.35105,283.8705 66.30231,254.19002 66.129695,224.50235 65.016055,194.84017 63.835086,162.02886 62.052025,129.2005 61.000708,96.410055 60.371787,77.303729 60.125013,58.187196 59.592293,39.078669 59.430105,35.368686 59.339101,31.635154 58.72177,27.966859 57.85062,23.210919 55.4109,18.891735 52.456453,15.123909 48.166969,9.6756031 41.804549,5.9749222 34.987011,4.781632 32.097401,4.2520488 29.146092,4.1447246 26.214938,4.2296629 Z" /></g></svg>
