<?xml version="1.0" encoding="UTF-8" standalone="no"?>
<!-- Created with Inkscape (http://www.inkscape.org/) -->

<svg
   width="210mm"
   height="297mm"
   viewBox="0 0 210 297"
   version="1.1"
   id="svg1"
   xml:space="preserve"
   inkscape:version="1.3.1 (9b9bdc1480, 2023-11-25, custom)"
   sodipodi:docname="paper.svg"
   xmlns:inkscape="http://www.inkscape.org/namespaces/inkscape"
   xmlns:sodipodi="http://sodipodi.sourceforge.net/DTD/sodipodi-0.dtd"
   xmlns="http://www.w3.org/2000/svg"
   xmlns:svg="http://www.w3.org/2000/svg"><sodipodi:namedview
     id="namedview1"
     pagecolor="#ffffff"
     bordercolor="#000000"
     borderopacity="0.25"
     inkscape:showpageshadow="2"
     inkscape:pageopacity="0.0"
     inkscape:pagecheckerboard="0"
     inkscape:deskcolor="#d1d1d1"
     inkscape:document-units="mm"
     inkscape:zoom="0.67564562"
     inkscape:cx="327.83458"
     inkscape:cy="599.42666"
     inkscape:window-width="1850"
     inkscape:window-height="1016"
     inkscape:window-x="70"
     inkscape:window-y="27"
     inkscape:window-maximized="1"
     inkscape:current-layer="layer1" /><defs
     id="defs1" /><g
     inkscape:label="Layer 1"
     inkscape:groupmode="layer"
     id="layer1"><path
       style="fill:#ffffff;fill-opacity:0.64216;stroke:#000000;stroke-width:1.265;stroke-linecap:round;stroke-dasharray:none"
       d="m 207.44881,156.97233 c 0.50998,17.07336 -5.48468,133.8813 -5.48468,133.8813 0,0 -17.23907,-1.20352 -50.28179,-0.69682 -31.80782,0.48777 -147.659354,2.05631 -147.659354,2.05631 0,0 5.3211982,-111.57713 4.0747255,-135.24046"
       id="path1"
       sodipodi:nodetypes="ccscc" /><path
       style="fill:#ffffff;fill-opacity:0.64216;stroke:#000000;stroke-width:1.265;stroke-linecap:round;stroke-dasharray:none"
       d="M 8.0977115,158.031 C 6.4517167,126.78305 7.1684751,125.07062 3.9705747,80.78648 0.84815951,37.54765 3.6673572,5.32814 3.6673572,5.32814 L 19.11686,5.4475822 19.824007,18.645777 c 0,0 -9.9033494,9.289898 2.217521,9.733755 12.12087,0.443855 1.897003,-10.68686 1.897003,-10.68686 V 6.316866 l 27.563608,-2.166745 0.152232,15.705017 c 0,0 -11.095037,8.552787 1.886696,9.963224 12.981734,1.410437 2.578605,-11.181839 2.578605,-11.181839 L 57.002693,4.1256211 89.018641,3.2362608 90.155062,19.16543 c 0,0 -13.428322,9.408004 0.350905,9.69671 13.779223,0.288701 4.901721,-9.958593 4.901721,-9.958593 V 3.2149702 l 32.946852,1.2141689 -0.17751,16.9626139 c 0,0 -10.81255,10.174261 0.93831,11.051856 11.75086,0.8776 3.54364,-10.327103 3.54364,-10.327103 l 2.13193,-15.8157606 33.24847,4.2423936 0.77121,16.28291 c 0,0 -8.60643,3.553312 0.42956,6.180265 9.03598,2.626953 3.83084,-7.355267 3.83084,-7.355267 l 0.51163,-12.949414 c 0,0 19.62709,3.885002 25.20515,3.885002 0,0 5.39579,36.750799 6.99864,67.267183 1.55398,29.585862 1.15243,57.103822 1.6624,74.177182"
       id="path2"
       sodipodi:nodetypes="cscccsccccsccccsccccsccccscccsc" /></g></svg>
